<?xml version="1.0" encoding="utf-8"?>
<!-- Generator: Adobe Illustrator 16.0.0, SVG Export Plug-In . SVG Version: 6.00 Build 0)  -->
<!DOCTYPE svg PUBLIC "-//W3C//DTD SVG 1.1//EN" "http://www.w3.org/Graphics/SVG/1.1/DTD/svg11.dtd">
<svg version="1.1" id="Layer_1" xmlns="http://www.w3.org/2000/svg" xmlns:xlink="http://www.w3.org/1999/xlink" x="0px" y="0px"
	 width="400px" height="400px" viewBox="0 0 400 400" enable-background="new 0 0 400 400" xml:space="preserve">
<path fill-rule="evenodd" clip-rule="evenodd" d="M185.577,291.14c-17.009,0-33.513,0-50.373,0c0-9.941,0-19.615,0-29.764
	c16.712,0,33.309,0,50.345,0c0-5.977-0.001-11.489,0-17.002c0.001-8.601-0.046-17.201,0.042-25.801
	c0.021-2.119-0.365-3.303-2.772-3.853c-37.282-8.525-64.107-45.224-61.566-86.673c1.955-31.888,16.296-56.729,45.043-71.743
	c32.992-17.23,73.246-6.253,95.537,25.292c27.622,39.09,18.351,95.144-20.15,121.77c-7.808,5.398-16.319,9.253-25.582,11.352
	c-1.937,0.439-2.966,1.057-2.949,3.322c0.102,13.892,0.06,27.784,0.082,41.677c0,0.369,0.184,0.739,0.398,1.552
	c16.536,0,33.135,0,50.02,0c0,10.047,0,19.64,0,29.643c-16.597,0-33.204,0-50.316,0c0,18.314,0,36.229,0,54.429
	c-9.423,0-18.335,0-27.757,0C185.577,327.237,185.577,309.319,185.577,291.14z M202.968,78.112c-12.328-0.113-20.758,2.27-28.5,7
	c-29.695,18.144-34.683,61.703-9.974,86.884c19.786,20.163,50.58,20.018,70.159-0.331c17.081-17.752,20.476-46.511,7.868-67.698
	C232.885,87.771,218.764,78.846,202.968,78.112z"/>
</svg>
