<?xml version="1.0" encoding="utf-8"?>
<!-- Generator: Adobe Illustrator 16.0.0, SVG Export Plug-In . SVG Version: 6.00 Build 0)  -->
<!DOCTYPE svg PUBLIC "-//W3C//DTD SVG 1.1//EN" "http://www.w3.org/Graphics/SVG/1.1/DTD/svg11.dtd">
<svg version="1.1" id="Layer_1" xmlns="http://www.w3.org/2000/svg" xmlns:xlink="http://www.w3.org/1999/xlink" x="0px" y="0px"
	 width="400px" height="400px" viewBox="0 0 400 400" enable-background="new 0 0 400 400" xml:space="preserve">
<path fill-rule="evenodd" clip-rule="evenodd" d="M213.184,160.555c20.029-20.013,39.75-39.719,59.617-59.57
	c-12.42,0-24.946,0-37.85,0c0-10.61,0-20.84,0-31.439c31.217,0,62.516,0,94.144,0c0,31.294,0,62.59,0,94.187
	c-10.339,0-20.579,0-31.337,0c0-12.716,0-25.361,0-37.985c-20.041,20.06-39.829,39.866-59.692,59.748
	c29.595,44.225,17.297,99.93-21.078,129.223c-37.036,28.271-90.297,25.133-123.665-7.599
	c-34.195-33.544-38.377-86.683-9.978-124.772C112.657,143.035,169.157,130.905,213.184,160.555z M220.984,238.838
	c-0.06-33.701-27.667-61.194-61.473-61.219c-33.936-0.024-61.531,27.686-61.424,61.68c0.105,33.765,27.749,61.304,61.455,61.223
	C193.59,300.439,221.045,272.878,220.984,238.838z"/>
</svg>
