<?xml version="1.0" encoding="utf-8"?>
<!-- Generator: Adobe Illustrator 16.0.0, SVG Export Plug-In . SVG Version: 6.00 Build 0)  -->
<!DOCTYPE svg PUBLIC "-//W3C//DTD SVG 1.1//EN" "http://www.w3.org/Graphics/SVG/1.1/DTD/svg11.dtd">
<svg version="1.1" xmlns="http://www.w3.org/2000/svg" xmlns:xlink="http://www.w3.org/1999/xlink" x="0px" y="0px" width="400px"
	 height="400px" viewBox="0 0 400 400" enable-background="new 0 0 400 400" xml:space="preserve">
<g id="Layer_2">
</g>
<g id="Layer_1">
	<path fill-rule="evenodd" clip-rule="evenodd" d="M199.198,143.288c-1.744,2.163-2.648,3.521-3.779,4.653
		c-47.821,47.856-95.687,95.667-143.473,143.558c-6.919,6.934-14.634,11.134-24.756,9.396c-18.676-3.207-27.318-25.064-15.81-40.129
		c1.376-1.801,2.957-3.465,4.563-5.07C70.209,201.4,124.513,147.142,178.743,92.811c7.266-7.28,15.492-11.83,25.893-9.014
		c4.34,1.175,8.979,3.409,12.121,6.531c56.363,55.982,112.453,112.241,168.76,168.278c15.257,15.185,8.148,37.835-9.162,43.191
		c-8.115,2.511-15.634,1.211-22.491-3.672c-2.166-1.542-4.089-3.456-5.979-5.347c-48.33-48.295-96.643-96.606-144.938-144.934
		C201.818,146.721,200.908,145.383,199.198,143.288z"/>
</g>
</svg>
