<?xml version="1.0" encoding="utf-8"?>
<!-- Generator: Adobe Illustrator 16.0.0, SVG Export Plug-In . SVG Version: 6.00 Build 0)  -->
<!DOCTYPE svg PUBLIC "-//W3C//DTD SVG 1.1//EN" "http://www.w3.org/Graphics/SVG/1.1/DTD/svg11.dtd">
<svg version="1.1" id="Layer_1" xmlns="http://www.w3.org/2000/svg" xmlns:xlink="http://www.w3.org/1999/xlink" x="0px" y="0px"
	 width="400px" height="400px" viewBox="0 0 400 400" enable-background="new 0 0 400 400" xml:space="preserve">
<g>
	<path fill-rule="evenodd" clip-rule="evenodd" d="M3.483,176.65c1.545-6.566,2.578-13.306,4.735-19.664
		c5.844-17.224,16.27-30.914,32.524-39.717c8.298-4.494,17.219-6.294,26.601-6.335c15.24-0.065,30.509,0.288,45.71-0.546
		c14.472-0.795,28.603-3.883,41.874-10.202c45.268-21.555,90.575-43.03,135.866-64.539c15.882-7.541,30.476-1.24,35.906,15.42
		c12.16,37.299,19.822,75.479,21.813,114.678c2.335,45.947-3.844,90.932-16.351,135.112c-1.846,6.521-3.843,13.002-5.973,19.434
		c-4.884,14.734-19.958,21.24-34.028,14.584c-37.922-17.937-75.747-36.082-113.721-53.909c-12.821-6.018-25.63-12.45-39.089-16.599
		c-11.087-3.418-23.126-3.755-34.75-5.409c-0.842-0.119-1.74,0.151-3.186,0.3c0.803,3.682,1.39,7.19,2.344,10.598
		c2.958,10.568,7.777,20.218,14.077,29.237c8.322,11.915,13.526,25.186,15.92,39.54c1.603,9.608-4.207,18.971-13.755,20.927
		c-15.537,3.181-31.148,6.038-46.792,8.653c-9.682,1.618-18.695-5.18-20.509-14.905c-6.123-32.824-12.443-65.613-18.047-98.525
		c-0.866-5.084-2.922-7.959-6.422-11.099c-13.934-12.504-21.23-28.545-23.969-46.854c-0.165-1.104-0.515-2.179-0.779-3.268
		C3.483,187.925,3.483,182.287,3.483,176.65z M298.95,65.963c-1.58,0.717-2.858,1.275-4.118,1.873
		c-42.051,19.964-84.142,39.845-126.128,59.941c-17.015,8.144-35.063,12.198-53.652,13.363c-15.698,0.984-31.487,0.678-47.235,0.618
		c-9.478-0.035-16.788,3.877-22.628,10.97c-14.171,17.206-14.601,45.667-0.932,63.33c6.238,8.062,14.181,12.477,24.764,12.179
		c12.669-0.358,25.368-0.425,38.033,0.003c20.479,0.69,40.535,4.048,59.231,12.84c43.045,20.247,85.964,40.764,128.939,61.162
		c1.203,0.571,2.452,1.041,3.755,1.589C324.374,224.352,324.32,145.355,298.95,65.963z"/>
	<path fill-rule="evenodd" clip-rule="evenodd" d="M364.536,132.32c19.645,8.292,33.399,31.823,32.472,55.611
		c-0.819,20.972-15.979,43.93-32.444,49.478c0.847-17.461,2.364-35.032,2.363-52.606
		C366.925,167.321,365.398,149.839,364.536,132.32z"/>
</g>
</svg>
